{
	"asset":{
		"generator":"Khronos glTF Blender I/O v4.0.44",
		"version":"2.0"
	},
	"scene":0,
	"scenes":[
		{
			"name":"Scene",
			"nodes":[
				0
			]
		}
	],
	"nodes":[
		{
			"mesh":0,
			"name":"Plane",
			"scale":[
				33.09367370605469,
				33.09367370605469,
				33.09367370605469
			]
		}
	],
	"materials":[
		{
			"doubleSided":true,
			"name":"asphalt",
			"pbrMetallicRoughness":{
				"baseColorFactor":[
					0.0018214673036709428,
					0.0021245956886559725,
					0.0021245351526886225,
					1
				],
				"metallicFactor":0,
				"roughnessFactor":0.9724409580230713
			}
		},
		{
			"doubleSided":true,
			"name":"sidewalk / concrete",
			"pbrMetallicRoughness":{
				"baseColorFactor":[
					0.1476549208164215,
					0.13893446326255798,
					0.13893143832683563,
					1
				],
				"metallicFactor":0,
				"roughnessFactor":0.6496062874794006
			}
		},
		{
			"doubleSided":true,
			"name":"grass",
			"pbrMetallicRoughness":{
				"baseColorFactor":[
					0.011872414499521255,
					0.10878913104534149,
					0.013063380494713783,
					1
				],
				"metallicFactor":0,
				"roughnessFactor":0.7834645509719849
			}
		},
		{
			"doubleSided":true,
			"name":"dirt path",
			"pbrMetallicRoughness":{
				"baseColorFactor":[
					0.16951166093349457,
					0.05633554607629776,
					0.0020008597057312727,
					1
				],
				"metallicFactor":0,
				"roughnessFactor":0.9015747904777527
			}
		}
	],
	"meshes":[
		{
			"name":"Plane",
			"primitives":[
				{
					"attributes":{
						"POSITION":0,
						"NORMAL":1,
						"TEXCOORD_0":2
					},
					"indices":3,
					"material":0
				},
				{
					"attributes":{
						"POSITION":4,
						"NORMAL":5,
						"TEXCOORD_0":6
					},
					"indices":7,
					"material":1
				},
				{
					"attributes":{
						"POSITION":8,
						"NORMAL":9,
						"TEXCOORD_0":10
					},
					"indices":11,
					"material":2
				},
				{
					"attributes":{
						"POSITION":12,
						"NORMAL":13,
						"TEXCOORD_0":14
					},
					"indices":15,
					"material":3
				}
			]
		}
	],
	"accessors":[
		{
			"bufferView":0,
			"componentType":5126,
			"count":1618,
			"max":[
				1.352489948272705,
				0.002288244431838393,
				1.482537031173706
			],
			"min":[
				0.4161507487297058,
				0,
				-1.3004710674285889
			],
			"type":"VEC3"
		},
		{
			"bufferView":1,
			"componentType":5126,
			"count":1618,
			"type":"VEC3"
		},
		{
			"bufferView":2,
			"componentType":5126,
			"count":1618,
			"type":"VEC2"
		},
		{
			"bufferView":3,
			"componentType":5123,
			"count":7818,
			"type":"SCALAR"
		},
		{
			"bufferView":4,
			"componentType":5126,
			"count":15226,
			"max":[
				1.6646029949188232,
				0.002288244431838393,
				1.6646029949188232
			],
			"min":[
				-1.6646029949188232,
				0,
				-1.6646029949188232
			],
			"type":"VEC3"
		},
		{
			"bufferView":5,
			"componentType":5126,
			"count":15226,
			"type":"VEC3"
		},
		{
			"bufferView":6,
			"componentType":5126,
			"count":15226,
			"type":"VEC2"
		},
		{
			"bufferView":7,
			"componentType":5123,
			"count":87930,
			"type":"SCALAR"
		},
		{
			"bufferView":8,
			"componentType":5126,
			"count":424,
			"max":[
				1.1444145441055298,
				0,
				-0.6502355337142944
			],
			"min":[
				0.5461978912353516,
				0,
				-1.170423984527588
			],
			"type":"VEC3"
		},
		{
			"bufferView":9,
			"componentType":5126,
			"count":424,
			"type":"VEC3"
		},
		{
			"bufferView":10,
			"componentType":5126,
			"count":424,
			"type":"VEC2"
		},
		{
			"bufferView":11,
			"componentType":5123,
			"count":2016,
			"type":"SCALAR"
		},
		{
			"bufferView":12,
			"componentType":5126,
			"count":174,
			"max":[
				1.1444145441055298,
				0,
				-0.6502355337142944
			],
			"min":[
				0.5461978912353516,
				0,
				-1.170423984527588
			],
			"type":"VEC3"
		},
		{
			"bufferView":13,
			"componentType":5126,
			"count":174,
			"type":"VEC3"
		},
		{
			"bufferView":14,
			"componentType":5126,
			"count":174,
			"type":"VEC2"
		},
		{
			"bufferView":15,
			"componentType":5123,
			"count":744,
			"type":"SCALAR"
		}
	],
	"bufferViews":[
		{
			"buffer":0,
			"byteLength":19416,
			"byteOffset":0,
			"target":34962
		},
		{
			"buffer":0,
			"byteLength":19416,
			"byteOffset":19416,
			"target":34962
		},
		{
			"buffer":0,
			"byteLength":12944,
			"byteOffset":38832,
			"target":34962
		},
		{
			"buffer":0,
			"byteLength":15636,
			"byteOffset":51776,
			"target":34963
		},
		{
			"buffer":0,
			"byteLength":182712,
			"byteOffset":67412,
			"target":34962
		},
		{
			"buffer":0,
			"byteLength":182712,
			"byteOffset":250124,
			"target":34962
		},
		{
			"buffer":0,
			"byteLength":121808,
			"byteOffset":432836,
			"target":34962
		},
		{
			"buffer":0,
			"byteLength":175860,
			"byteOffset":554644,
			"target":34963
		},
		{
			"buffer":0,
			"byteLength":5088,
			"byteOffset":730504,
			"target":34962
		},
		{
			"buffer":0,
			"byteLength":5088,
			"byteOffset":735592,
			"target":34962
		},
		{
			"buffer":0,
			"byteLength":3392,
			"byteOffset":740680,
			"target":34962
		},
		{
			"buffer":0,
			"byteLength":4032,
			"byteOffset":744072,
			"target":34963
		},
		{
			"buffer":0,
			"byteLength":2088,
			"byteOffset":748104,
			"target":34962
		},
		{
			"buffer":0,
			"byteLength":2088,
			"byteOffset":750192,
			"target":34962
		},
		{
			"buffer":0,
			"byteLength":1392,
			"byteOffset":752280,
			"target":34962
		},
		{
			"buffer":0,
			"byteLength":1488,
			"byteOffset":753672,
			"target":34963
		}
	],
	"buffers":[
		{
			"byteLength":755160,
			"uri":"portfolio-new.bin"
		}
	]
}
