{
	"asset":{
		"generator":"Khronos glTF Blender I/O v4.0.44",
		"version":"2.0"
	},
	"extensionsUsed":[
		"KHR_materials_emissive_strength"
	],
	"scene":0,
	"scenes":[
		{
			"name":"Scene",
			"nodes":[
				0
			]
		}
	],
	"nodes":[
		{
			"mesh":0,
			"name":"polySurface102",
			"translation":[
				18.728975296020508,
				4.130317211151123,
				-0.03298736363649368
			]
		}
	],
	"materials":[
		{
			"doubleSided":true,
			"name":"metal",
			"pbrMetallicRoughness":{
				"baseColorFactor":[
					0.2088107019662857,
					0.2088107019662857,
					0.2088107019662857,
					1
				],
				"metallicFactor":0.14173227548599243,
				"roughnessFactor":0.8228346705436707
			}
		},
		{
			"doubleSided":true,
			"emissiveFactor":[
				1,
				0.7739394903182983,
				0.25491058826446533
			],
			"extensions":{
				"KHR_materials_emissive_strength":{
					"emissiveStrength":2
				}
			},
			"name":"light",
			"pbrMetallicRoughness":{
				"baseColorFactor":[
					0.800000011920929,
					0.800000011920929,
					0.800000011920929,
					1
				],
				"metallicFactor":0,
				"roughnessFactor":0.4000000059604645
			}
		}
	],
	"meshes":[
		{
			"name":"Mesh.043",
			"primitives":[
				{
					"attributes":{
						"POSITION":0,
						"NORMAL":1,
						"TEXCOORD_0":2
					},
					"indices":3,
					"material":0
				},
				{
					"attributes":{
						"POSITION":4,
						"NORMAL":5,
						"TEXCOORD_0":6
					},
					"indices":7,
					"material":1
				}
			]
		}
	],
	"accessors":[
		{
			"bufferView":0,
			"componentType":5126,
			"count":952,
			"max":[
				0.16749000549316406,
				0.8319540023803711,
				1.9082844257354736
			],
			"min":[
				-0.16600418090820312,
				-4.134657859802246,
				-0.13375923037528992
			],
			"type":"VEC3"
		},
		{
			"bufferView":1,
			"componentType":5126,
			"count":952,
			"type":"VEC3"
		},
		{
			"bufferView":2,
			"componentType":5126,
			"count":952,
			"type":"VEC2"
		},
		{
			"bufferView":3,
			"componentType":5123,
			"count":2340,
			"type":"SCALAR"
		},
		{
			"bufferView":4,
			"componentType":5126,
			"count":20,
			"max":[
				0.09945487976074219,
				0.6011257171630859,
				1.8739113807678223
			],
			"min":[
				-0.09936714172363281,
				0.5655598640441895,
				1.550326943397522
			],
			"type":"VEC3"
		},
		{
			"bufferView":5,
			"componentType":5126,
			"count":20,
			"type":"VEC3"
		},
		{
			"bufferView":6,
			"componentType":5126,
			"count":20,
			"type":"VEC2"
		},
		{
			"bufferView":7,
			"componentType":5123,
			"count":72,
			"type":"SCALAR"
		}
	],
	"bufferViews":[
		{
			"buffer":0,
			"byteLength":11424,
			"byteOffset":0,
			"target":34962
		},
		{
			"buffer":0,
			"byteLength":11424,
			"byteOffset":11424,
			"target":34962
		},
		{
			"buffer":0,
			"byteLength":7616,
			"byteOffset":22848,
			"target":34962
		},
		{
			"buffer":0,
			"byteLength":4680,
			"byteOffset":30464,
			"target":34963
		},
		{
			"buffer":0,
			"byteLength":240,
			"byteOffset":35144,
			"target":34962
		},
		{
			"buffer":0,
			"byteLength":240,
			"byteOffset":35384,
			"target":34962
		},
		{
			"buffer":0,
			"byteLength":160,
			"byteOffset":35624,
			"target":34962
		},
		{
			"buffer":0,
			"byteLength":144,
			"byteOffset":35784,
			"target":34963
		}
	],
	"buffers":[
		{
			"byteLength":35928,
			"uri":"streetlight.bin"
		}
	]
}
