{
	"asset":{
		"generator":"Khronos glTF Blender I/O v4.0.44",
		"version":"2.0"
	},
	"scene":0,
	"scenes":[
		{
			"name":"Scene",
			"nodes":[
				0
			]
		}
	],
	"nodes":[
		{
			"mesh":0,
			"name":"Object_9",
			"rotation":[
				-0.70710688829422,
				0,
				0,
				0.7071066498756409
			],
			"scale":[
				2.7384538650512695,
				2.7384543418884277,
				2.7384543418884277
			]
		}
	],
	"materials":[
		{
			"doubleSided":true,
			"name":"Material.001",
			"pbrMetallicRoughness":{
				"baseColorTexture":{
					"index":0
				},
				"metallicFactor":0,
				"roughnessFactor":0.8040408492088318
			}
		}
	],
	"meshes":[
		{
			"name":"Cube_Material_0",
			"primitives":[
				{
					"attributes":{
						"POSITION":0,
						"NORMAL":1,
						"TEXCOORD_0":2
					},
					"indices":3,
					"material":0
				}
			]
		}
	],
	"textures":[
		{
			"sampler":0,
			"source":0
		}
	],
	"images":[
		{
			"mimeType":"image/png",
			"name":"Material_baseColor",
			"uri":"Material_baseColor.png"
		}
	],
	"accessors":[
		{
			"bufferView":0,
			"componentType":5126,
			"count":956,
			"max":[
				0.6262797117233276,
				1.2673275470733643,
				0.14282096922397614
			],
			"min":[
				-0.6262797117233276,
				0.002302982611581683,
				-0.10357273370027542
			],
			"type":"VEC3"
		},
		{
			"bufferView":1,
			"componentType":5126,
			"count":956,
			"type":"VEC3"
		},
		{
			"bufferView":2,
			"componentType":5126,
			"count":956,
			"type":"VEC2"
		},
		{
			"bufferView":3,
			"componentType":5123,
			"count":1464,
			"type":"SCALAR"
		}
	],
	"bufferViews":[
		{
			"buffer":0,
			"byteLength":11472,
			"byteOffset":0,
			"target":34962
		},
		{
			"buffer":0,
			"byteLength":11472,
			"byteOffset":11472,
			"target":34962
		},
		{
			"buffer":0,
			"byteLength":7648,
			"byteOffset":22944,
			"target":34962
		},
		{
			"buffer":0,
			"byteLength":2928,
			"byteOffset":30592,
			"target":34963
		}
	],
	"samplers":[
		{
			"magFilter":9729,
			"minFilter":9987
		}
	],
	"buffers":[
		{
			"byteLength":33520,
			"uri":"test.bin"
		}
	]
}
